<svg width="173" height="40" viewBox="0 0 173 40" fill="none" xmlns="http://www.w3.org/2000/svg">
<g clip-path="url(#clip0_1_2)">
<path d="M16.8275 0.00309287C15.4322 -0.0676383 14.2855 1.08427 14.3559 2.4859C14.4162 3.68688 15.3877 4.66125 16.5818 4.72187C17.9771 4.7926 19.124 3.6407 19.0535 2.23907C18.9932 1.03952 18.0232 0.0637195 16.8275 0.00309287ZM22.0052 2.99401C20.6098 2.92327 19.463 4.07519 19.5335 5.47682C19.5938 6.6778 20.5652 7.65216 21.7594 7.71278C23.1548 7.78352 24.3015 6.63161 24.2311 5.22998C24.1707 4.03044 23.1993 3.05464 22.0052 2.99401ZM27.1813 5.98349C25.7859 5.91275 24.6392 7.06322 24.7096 8.46629C24.77 9.66728 25.7413 10.6416 26.9355 10.7022C28.3309 10.773 29.4776 9.62253 29.4073 8.21945C29.3483 7.01991 28.3769 6.04556 27.1813 5.98349ZM32.1145 13.6932C33.5099 13.7639 34.6567 12.6134 34.5863 11.2104C34.5259 10.0094 33.5545 9.03502 32.3603 8.9744C30.9649 8.90367 29.8182 10.0541 29.8887 11.4572C29.9476 12.6567 30.919 13.6326 32.1145 13.6932ZM16.8275 5.98349C15.4322 5.91275 14.2855 7.06322 14.3559 8.46629C14.4162 9.66728 15.3877 10.6416 16.5818 10.7022C17.9771 10.773 19.124 9.62253 19.0535 8.21945C18.9946 7.01991 18.0232 6.04556 16.8275 5.98349ZM22.0052 8.9744C20.6098 8.90367 19.463 10.0541 19.5335 11.4572C19.5938 12.6582 20.5652 13.6326 21.7594 13.6932C23.1548 13.7639 24.3015 12.6134 24.2311 11.2104C24.1707 10.0108 23.1993 9.03502 22.0052 8.9744ZM27.1813 11.9654C25.7859 11.8946 24.6392 13.0465 24.7096 14.4481C24.77 15.6491 25.7413 16.6235 26.9355 16.6841C28.3309 16.7548 29.4776 15.6029 29.4073 14.2012C29.3483 13.0003 28.3769 12.0259 27.1813 11.9654ZM32.3588 14.9547C30.9635 14.8841 29.8168 16.0359 29.8872 17.4376C29.9476 18.6386 30.919 19.613 32.1131 19.6736C33.5084 19.7443 34.6553 18.5924 34.5848 17.1907C34.5245 15.9913 33.553 15.0154 32.3588 14.9547ZM16.8275 11.9654C15.4322 11.8946 14.2855 13.0465 14.3559 14.4481C14.4162 15.6491 15.3877 16.6235 16.5818 16.6841C17.9771 16.7548 19.124 15.6029 19.0535 14.2012C18.9932 13.0003 18.0232 12.0259 16.8275 11.9654ZM22.0052 14.9547C20.6098 14.8841 19.463 16.0359 19.5335 17.4376C19.5938 18.6386 20.5652 19.613 21.7594 19.6736C23.1548 19.7443 24.3015 18.5924 24.2311 17.1907C24.1707 15.9913 23.1993 15.0154 22.0052 14.9547ZM27.1813 17.9457C25.7859 17.875 24.6392 19.0269 24.7096 20.4285C24.77 21.6295 25.7413 22.6038 26.9355 22.6645C28.3309 22.7352 29.4776 21.5833 29.4073 20.1816C29.3483 18.9821 28.3769 18.0063 27.1813 17.9457ZM32.3588 20.9351C30.9635 20.8645 29.8168 22.0163 29.8872 23.418C29.9476 24.619 30.919 25.5933 32.1131 25.654C33.5084 25.7247 34.6553 24.5728 34.5848 23.1711C34.5245 21.9716 33.553 20.9973 32.3588 20.9351ZM16.8275 17.9457C15.4322 17.875 14.2855 19.0269 14.3559 20.4285C14.4162 21.6295 15.3877 22.6038 16.5818 22.6645C17.9771 22.7352 19.124 21.5833 19.0535 20.1816C18.9932 18.9821 18.0232 18.0063 16.8275 17.9457ZM22.0052 20.9351C20.6098 20.8645 19.463 22.0163 19.5335 23.418C19.5938 24.619 20.5652 25.5933 21.7594 25.654C23.1548 25.7247 24.3015 24.5728 24.2311 23.1711C24.1707 21.9716 23.1993 20.9973 22.0052 20.9351ZM27.1813 23.9261C25.7859 23.8553 24.6392 25.0073 24.7096 26.4089C24.77 27.6099 25.7413 28.5842 26.9355 28.6449C28.3309 28.7157 29.4776 27.5637 29.4073 26.162C29.3468 24.9625 28.3769 23.9868 27.1813 23.9261ZM32.3588 26.917C30.9635 26.8462 29.8168 27.9968 29.8872 29.3998C29.9476 30.6009 30.919 31.5752 32.1131 31.6358C33.5084 31.7065 34.6553 30.5561 34.5848 29.153C34.5245 27.9534 33.5545 26.9777 32.3588 26.917Z" fill="#FF6633"/>
<path d="M21.883 33.6726C21.6977 33.6726 21.5209 33.7073 21.3571 33.7678C21.2177 33.8184 21.074 33.8545 20.926 33.8646C20.8959 33.866 20.8671 33.8675 20.8441 33.8675C19.7792 33.8675 18.8553 33.267 18.3868 32.385L18.3797 32.3706C18.3163 32.2508 18.2747 32.1209 18.2517 31.9866C18.121 31.2461 17.4829 30.6816 16.7069 30.6816C16.5259 30.6816 16.3519 30.7149 16.191 30.7727C16.0473 30.8246 15.8979 30.8621 15.7455 30.8736C15.7154 30.8766 15.6881 30.8766 15.6637 30.8766C14.5729 30.8766 13.6432 30.2688 13.1876 29.3551L13.1862 29.3537C13.1331 29.2454 13.0956 29.13 13.0756 29.0102C12.9491 28.2624 12.3082 27.6923 11.5279 27.6923C11.3483 27.6923 11.1773 27.7254 11.0163 27.7817C10.8884 27.8265 10.7563 27.8567 10.6211 27.8655C10.5752 27.8683 10.5306 27.8697 10.4961 27.8697C9.33644 27.8697 8.33771 27.0311 7.91953 26.0192L7.86206 25.859C7.79883 25.6324 7.68817 25.4259 7.53873 25.2527C7.42233 25.117 7.31168 24.9784 7.21539 24.8283C7.1263 24.6883 7.02859 24.5295 6.9826 24.4285C6.81734 24.0633 6.6837 23.6649 6.6837 23.2953C6.6837 22.8493 6.78861 22.4277 6.97541 22.0539C6.98691 22.0308 7.00128 22.002 7.01853 21.9716C7.122 21.7812 7.26139 21.6122 7.42089 21.465C7.74853 21.1604 7.94684 20.7187 7.92529 20.2308C7.88792 19.4152 7.22545 18.7541 6.41354 18.7224C5.51396 18.6877 4.7739 19.4095 4.7739 20.3044C4.7739 20.7634 4.96934 21.1762 5.27973 21.4664C5.45505 21.6296 5.61025 21.8143 5.72521 22.025C5.74676 22.0641 5.76544 22.1001 5.77981 22.1318C5.9422 22.4855 6.03416 22.8796 6.03416 23.2953C6.03416 23.701 6.00399 24.4545 5.42487 25.0044C5.03831 25.3711 4.72504 25.8402 4.77964 26.4291C4.84143 27.1062 5.33721 27.6676 5.99536 27.8265C6.31726 27.9044 6.61904 27.8712 6.88776 27.7687C7.02715 27.7153 7.17372 27.6821 7.32317 27.6764C7.35192 27.6749 7.37635 27.6749 7.39646 27.6749C8.45124 27.6749 9.37955 28.2408 9.85232 29.1054L9.85376 29.1068C9.91268 29.2137 9.94861 29.332 9.96298 29.4548C10.0506 30.2458 10.716 30.8607 11.5265 30.8607C11.7147 30.8607 11.8928 30.8246 12.0596 30.7626C12.1932 30.7134 12.3312 30.6788 12.4735 30.6701C12.5123 30.6673 12.5482 30.6658 12.5741 30.6658C13.5858 30.6658 14.4738 31.2158 14.9624 32.0284C14.9653 32.0342 14.9695 32.0401 14.9739 32.0472C15.0629 32.2017 15.1276 32.3706 15.1593 32.5481C15.29 33.2886 15.9295 33.853 16.7055 33.853C16.898 33.853 17.0805 33.8155 17.2487 33.7506C17.4053 33.6899 17.572 33.661 17.7401 33.6581C17.7487 33.6581 17.756 33.6581 17.7631 33.6581C18.7633 33.6581 19.6255 34.1764 20.1126 34.9689C20.117 34.9761 20.1213 34.9833 20.1255 34.9906C20.2305 35.168 20.3024 35.3644 20.3426 35.5679C20.4891 36.3171 21.156 36.8786 21.952 36.844C22.7639 36.8093 23.425 36.1439 23.458 35.3269C23.494 34.4174 22.7754 33.6726 21.883 33.6726ZM6.35175 15.9076C7.22258 15.9076 7.92816 15.1987 7.92816 14.324C7.92816 13.4492 7.22258 12.7405 6.35175 12.7405C5.48092 12.7405 4.77534 13.4492 4.77534 14.324C4.77534 15.1987 5.48092 15.9076 6.35175 15.9076ZM6.35175 9.92715C7.22258 9.92715 7.92816 9.21839 7.92816 8.34364C7.92816 7.46889 7.22258 6.76013 6.35175 6.76013C5.48092 6.76013 4.77534 7.46889 4.77534 8.34364C4.77534 9.21839 5.48092 9.92715 6.35175 9.92715Z" fill="#FF9900"/>
<path d="M27.2676 30.3035C26.9601 30.2717 26.6669 30.3121 26.3996 30.4074C26.2703 30.4535 26.138 30.4968 26.0045 30.5272C25.8708 30.5575 25.7156 30.5864 25.6035 30.5864C24.908 30.5864 24.3059 30.1865 24.0113 29.6034C23.9667 29.5167 23.9208 29.368 23.8863 29.2424C23.859 29.1443 23.8346 29.0447 23.8173 28.9437C23.6607 28.0126 22.8544 27.3023 21.8831 27.3023C21.6157 27.3023 21.3629 27.3572 21.1315 27.4539C21.0927 27.4698 21.0539 27.4872 21.0137 27.5016C20.8297 27.5666 20.6315 27.6055 20.4259 27.6055C19.6945 27.6055 19.0665 27.1638 18.7906 26.5316C18.7145 26.3569 18.644 25.9687 18.644 25.9687C18.4931 25.0289 17.6841 24.3115 16.7069 24.3115C16.4699 24.3115 16.2427 24.3562 16.0316 24.4342C16.0316 24.4342 15.53 24.6045 15.2541 24.6045C14.4968 24.6045 13.8515 24.131 13.5914 23.4627C13.5268 23.2967 13.4579 22.9214 13.4579 22.9214C13.3716 22.471 13.1331 22.0755 12.7983 21.7912C12.7034 21.7103 12.6128 21.6266 12.5296 21.5328C12.4361 21.4289 12.3269 21.2961 12.2694 21.1993C12.117 20.9366 12.0308 20.6306 12.0308 20.3043C12.0308 19.9233 12.1487 19.5696 12.3513 19.2794C12.3944 19.2159 12.4691 19.1322 12.5381 19.0601C12.6172 18.9763 12.7034 18.8984 12.791 18.8233C13.2193 18.461 13.4938 17.9211 13.4938 17.3134C13.4938 16.7058 13.2193 16.1644 12.7896 15.8036C12.6948 15.7226 12.6014 15.6405 12.5166 15.5494C12.4835 15.5134 12.452 15.4788 12.4289 15.4514C12.1804 15.1439 12.0323 14.7513 12.0323 14.3239C12.0323 14.002 12.117 13.6989 12.2651 13.4376C12.3269 13.3294 12.452 13.1807 12.5511 13.071C12.6258 12.9888 12.7063 12.9137 12.791 12.8429C13.2509 12.4561 13.5326 11.8613 13.4894 11.2031C13.4247 10.2028 12.6057 9.40165 11.6084 9.36268C10.4875 9.31793 9.56494 10.2187 9.56494 11.3344C9.56494 11.9407 9.83798 12.482 10.2676 12.8443C10.3539 12.918 10.4372 12.993 10.5148 13.0768C10.5982 13.1677 10.6973 13.2818 10.749 13.3655C10.9244 13.6426 11.0264 13.9731 11.0264 14.3254C11.0264 14.7527 10.8769 15.1453 10.6283 15.4542C10.6053 15.4816 10.5752 15.5163 10.5421 15.5524C10.4559 15.6433 10.3639 15.727 10.2676 15.8078C9.83941 16.1702 9.56494 16.71 9.56494 17.3178C9.56494 17.9269 9.84085 18.4696 10.2719 18.8306C10.3596 18.9041 10.443 18.9793 10.522 19.0629C10.578 19.1221 10.6355 19.1871 10.6729 19.2362C10.8956 19.5349 11.0264 19.906 11.0264 20.3087C11.0264 20.6811 10.9129 21.0276 10.7189 21.3148C10.6729 21.3826 10.591 21.475 10.5191 21.5544C10.4415 21.6381 10.3553 21.716 10.2676 21.7897C9.8078 22.1765 9.52758 22.7698 9.56925 23.428C9.63248 24.4226 10.4415 25.2223 11.4317 25.2699C11.7277 25.2844 12.0108 25.2324 12.2665 25.1285C12.4347 25.0592 12.6099 25.0087 12.791 24.9856C12.8644 24.9769 12.9362 24.9697 12.9908 24.9697C13.6102 24.9697 14.1562 25.2873 14.4767 25.7694C14.5069 25.8142 14.5385 25.8762 14.5701 25.9427C14.6678 26.1505 14.7339 26.3714 14.7684 26.598C14.9164 27.5406 15.7254 28.2623 16.7055 28.2623C16.9541 28.2623 17.1912 28.2147 17.4096 28.1295C17.5619 28.0703 17.72 28.0241 17.8809 28.0011C17.9802 27.9866 18.0851 27.9751 18.1612 27.9751C18.805 27.9751 19.3683 28.3172 19.683 28.8296C19.7261 28.9004 19.7721 29.0072 19.8123 29.1111C19.8756 29.2742 19.9172 29.4445 19.9474 29.6178C20.1069 30.5473 20.9102 31.2532 21.8817 31.2532C22.1288 31.2532 22.3644 31.2056 22.5828 31.1219C22.7654 31.0511 22.9566 31.0035 23.1506 30.9747C23.2195 30.9646 23.287 30.9573 23.3417 30.9573C24.0558 30.9573 24.6723 31.3803 24.9569 31.9894C24.9884 32.0587 25.023 32.164 25.0503 32.2593C25.0819 32.3705 25.1034 32.4831 25.1221 32.5956C25.2759 33.5311 26.0849 34.2442 27.0592 34.2442C28.1902 34.2442 29.0983 33.2827 29.0193 32.1294C28.9532 31.1768 28.2088 30.403 27.2676 30.3035ZM11.5293 7.3259C12.6143 7.3259 13.4938 6.44249 13.4938 5.35265C13.4938 4.26281 12.6143 3.37939 11.5293 3.37939C10.4444 3.37939 9.56494 4.26281 9.56494 5.35265C9.56494 6.44249 10.4444 7.3259 11.5293 7.3259Z" fill="#FF6633"/>
<path d="M1.17404 24.489C1.8207 24.489 2.34521 23.9549 2.34521 23.2953C2.34521 22.6356 1.8207 22.1015 1.17404 22.1015C0.527387 22.1015 0.00287466 22.6356 0.00287466 23.2953C0.00287466 23.9549 0.527387 24.489 1.17404 24.489ZM1.17404 18.5087C1.8207 18.5087 2.34521 17.9745 2.34521 17.3149C2.34521 16.6552 1.8207 16.1211 1.17404 16.1211C0.527387 16.1211 0.00287466 16.6552 0.00287466 17.3149C0.00287466 17.9745 0.527387 18.5087 1.17404 18.5087ZM1.17404 12.5283C1.8207 12.5283 2.34521 11.9941 2.34521 11.3344C2.34521 10.6748 1.8207 10.1407 1.17404 10.1407C0.527387 10.1407 0.00287466 10.6748 0.00287466 11.3344C0.00287466 11.9941 0.527387 12.5283 1.17404 12.5283ZM16.7053 37.0532C16.6608 37.0532 16.2987 37.0791 16.1636 37.0791C14.6777 37.0791 13.3916 36.2535 12.7464 35.0467C12.6975 34.9558 12.5869 34.7537 12.5869 34.7537C12.4 34.3466 11.9977 34.0622 11.5278 34.0622C11.489 34.0622 11.1283 34.0998 10.9817 34.0998C9.54612 34.0998 8.29736 33.329 7.63202 32.1872C7.55154 32.0486 7.40066 31.7455 7.40066 31.7455C7.21097 31.3485 6.81436 31.0714 6.3502 31.0714C6.31714 31.0714 5.94064 31.1045 5.78544 31.1045C4.28376 31.1045 2.98469 30.2616 2.34521 29.0317C2.31361 28.9711 2.28343 28.909 2.259 28.8441C2.08943 28.398 1.66838 28.0805 1.17117 28.0805C0.524512 28.0805 0 28.6145 0 29.2742C0 29.9339 0.524512 30.4679 1.17117 30.4679C1.22291 30.4679 1.59366 30.4405 1.72586 30.4405C3.09247 30.4405 4.29094 31.1393 4.9764 32.1901C5.08992 32.3648 5.27817 32.7458 5.27817 32.7458C5.46068 33.1644 5.87022 33.4574 6.34876 33.4574C6.39474 33.4574 6.76262 33.4358 6.89482 33.4358C8.34765 33.4358 9.60936 34.2239 10.2675 35.3889C10.3322 35.5028 10.4644 35.7541 10.4644 35.7541C10.6498 36.1625 11.0536 36.4483 11.5249 36.4483C11.5651 36.4483 11.9287 36.4224 12.0681 36.4224C13.4879 36.4224 14.728 37.173 15.3991 38.2931C15.4867 38.4404 15.6506 38.7623 15.6506 38.7623C15.8403 39.1622 16.2383 39.4393 16.7024 39.4393C17.3491 39.4393 17.8737 38.9052 17.8737 38.2455C17.8766 37.5873 17.352 37.0532 16.7053 37.0532Z" fill="#FF9900"/>
<path d="M66.6423 26.0519H65.4553C65.3202 26.0519 65.1966 26.1309 65.1405 26.2545L64.0353 28.6719C63.9305 28.902 64.0972 29.1621 64.3501 29.1621H65.5559C65.6924 29.1621 65.816 29.0816 65.872 28.958L66.9571 26.542C67.0606 26.3106 66.8924 26.0519 66.6423 26.0519ZM93.416 11.895C92.3813 11.5257 91.2604 11.3402 90.0546 11.3402C88.3042 11.3402 86.7234 11.7268 85.3092 12.5015C83.8965 13.2762 82.7899 14.3483 81.9894 15.7196C81.1904 17.0907 80.7909 18.6271 80.7909 20.3258C80.7909 22.0261 81.1904 23.5611 81.9894 24.9323C82.7885 26.3034 83.8908 27.3771 85.2963 28.1503C86.7018 28.9249 88.2784 29.3116 90.0287 29.3116C91.2403 29.3116 92.3698 29.1204 93.416 28.741C93.5526 28.6907 93.6431 28.5584 93.6431 28.4132V27.3641C93.6431 27.1155 93.3887 26.9488 93.1617 27.0479C92.2492 27.446 91.2301 27.6458 90.1034 27.6458C88.7066 27.6458 87.4362 27.3267 86.2922 26.6872C85.1483 26.0475 84.2515 25.1723 83.6048 24.0628C82.9566 22.9518 82.6333 21.7071 82.6333 20.3273C82.6333 18.9476 82.9566 17.7029 83.6048 16.5919C84.2529 15.4809 85.1483 14.607 86.2922 13.9675C87.4362 13.3279 88.7066 13.0089 90.1034 13.0089C91.2259 13.0089 92.2448 13.2087 93.1617 13.6068C93.3887 13.7059 93.6431 13.5378 93.6431 13.2905V12.227C93.6446 12.0775 93.5541 11.9453 93.416 11.895ZM73.9156 11.8979C73.8021 11.6507 73.5564 11.4925 73.2862 11.4925H72.3334C72.0618 11.4925 71.816 11.6507 71.7039 11.8979L66.4167 23.4619C66.2068 23.9205 66.5418 24.4421 67.0477 24.4421H67.9012V24.4408H77.2958C77.5688 24.4408 77.816 24.6002 77.9281 24.8504L79.7734 28.958C79.8294 29.0816 79.9516 29.1621 80.0881 29.1621H81.2709C81.5224 29.1621 81.6891 28.902 81.5841 28.6734L73.9156 11.8979ZM76.5298 22.9274H69.117C68.8656 22.9274 68.6989 22.6687 68.8009 22.4401L72.6021 13.9302C72.6869 13.739 72.9585 13.739 73.0433 13.9302L76.846 22.4401C76.9466 22.6687 76.7799 22.9274 76.5298 22.9274ZM54.9786 20.5156C54.1796 20.2037 53.1319 19.8889 51.8356 19.5685C50.742 19.2997 49.8711 19.051 49.2243 18.824C48.5762 18.5969 48.0387 18.2678 47.609 17.8395C47.1807 17.4097 46.9652 16.842 46.9652 16.1348C46.9652 15.1935 47.356 14.5669 48.1393 13.9704C48.799 13.4674 49.7345 13.1785 50.9402 13.0994C51.1242 13.0879 51.2694 12.9384 51.2694 12.7559V11.8533C51.2694 11.6565 51.1027 11.4954 50.9058 11.5069C49.7762 11.5687 48.8076 11.78 47.9999 12.1407C47.0241 12.5791 46.2998 13.1626 45.8298 13.8956C45.3585 14.6272 45.1228 15.2955 45.1228 16.1866C45.1228 17.2804 45.4044 18.147 45.9678 18.7865C46.5311 19.4262 47.2081 19.9019 47.9999 20.2123C48.7903 20.5242 49.8509 20.8476 51.1803 21.1839C52.2912 21.4541 53.1578 21.7013 53.7801 21.9285C54.4023 22.1555 54.9283 22.4803 55.3566 22.9C55.7862 23.3211 56.0004 23.8846 56.0004 24.5917C56.0004 25.5172 55.6051 26.2703 54.8134 26.851C54.0215 27.4316 52.8359 27.722 51.255 27.722C50.1283 27.722 49.0347 27.525 47.9741 27.1284C47.0816 26.7963 46.34 26.3767 45.745 25.8722C45.5769 25.7285 45.3182 25.7831 45.2191 25.9814L44.808 26.7906C44.7391 26.9243 44.762 27.091 44.8713 27.1945C45.5137 27.8025 46.3832 28.2983 47.4811 28.6821C48.684 29.1031 49.9414 29.313 51.255 29.313C52.7022 29.313 53.9223 29.0989 54.9154 28.6691C55.9084 28.2408 56.6442 27.6587 57.1228 26.9271C57.6028 26.1956 57.8428 25.3836 57.8428 24.4911C57.8428 23.4146 57.5654 22.5608 57.0093 21.9285C56.4546 21.2989 55.7776 20.8275 54.9786 20.5156ZM97.4083 11.8533C97.4083 11.6536 97.2474 11.4925 97.0476 11.4925H95.9008C95.7011 11.4925 95.5401 11.655 95.5401 11.8533V28.7999C95.5401 28.9997 95.7011 29.1607 95.9008 29.1607H97.0476C97.2474 29.1607 97.4083 28.9982 97.4083 28.7999V24.5169L97.4098 24.5155V22.1684L97.4083 22.1699V11.8533ZM68.2275 12.7616V11.8389C68.2275 11.6478 68.0723 11.4925 67.8811 11.4925H63.9765C63.7853 11.4925 63.6301 11.6478 63.6301 11.8389V12.7616C63.6301 12.9528 63.7853 13.108 63.9765 13.108H67.8811C68.0723 13.108 68.2275 12.9528 68.2275 12.7616ZM61.3264 11.4925H53.2483C53.0571 11.4925 52.9019 11.6478 52.9019 11.8389V12.7616C52.9019 12.9528 53.0571 13.108 53.2483 13.108H59.8045C59.9956 13.108 60.1508 13.2632 60.1508 13.4544V28.8157C60.1508 29.0069 60.306 29.1607 60.4957 29.1607H61.6742C61.8653 29.1607 62.0191 29.0069 62.0191 28.8157L62.0205 12.1853C62.0191 11.803 61.7086 11.4925 61.3264 11.4925ZM120.868 20.5156C120.069 20.2037 119.021 19.8889 117.725 19.5685C116.632 19.2997 115.761 19.051 115.114 18.824C114.466 18.5969 113.928 18.2678 113.499 17.8395C113.07 17.4097 112.855 16.842 112.855 16.1348C112.855 15.1935 113.245 14.5669 114.029 13.9704C114.688 13.4674 115.624 13.1785 116.83 13.0994C117.013 13.0879 117.159 12.9384 117.159 12.7559V11.8533C117.159 11.6565 116.992 11.4954 116.796 11.5069C115.666 11.5687 114.696 11.78 113.889 12.1407C112.914 12.5791 112.189 13.1626 111.72 13.8956C111.248 14.6272 111.012 15.2955 111.012 16.1866C111.012 17.2804 111.293 18.147 111.857 18.7865C112.421 19.4262 113.098 19.9019 113.889 20.2123C114.68 20.5242 115.74 20.8476 117.07 21.1839C118.18 21.4541 119.047 21.7013 119.67 21.9285C120.292 22.1555 120.817 22.4803 121.246 22.9C121.676 23.3211 121.89 23.8846 121.89 24.5917C121.89 25.5172 121.494 26.2703 120.702 26.851C119.911 27.4316 118.725 27.722 117.144 27.722C116.018 27.722 114.924 27.525 113.863 27.1284C112.971 26.7963 112.229 26.3767 111.635 25.8722C111.466 25.7285 111.208 25.7831 111.109 25.9814L110.698 26.7906C110.628 26.9243 110.652 27.091 110.76 27.1945C111.403 27.8025 112.273 28.2983 113.371 28.6821C114.573 29.1031 115.831 29.313 117.144 29.313C118.592 29.313 119.812 29.0989 120.805 28.6691C121.798 28.2408 122.534 27.6587 123.012 26.9271C123.492 26.1956 123.733 25.3836 123.733 24.4911C123.733 23.4146 123.455 22.5608 122.899 21.9285C122.344 21.2989 121.666 20.8275 120.868 20.5156ZM127.216 11.4925H119.138C118.947 11.4925 118.791 11.6478 118.791 11.8389V12.7616C118.791 12.9528 118.947 13.108 119.138 13.108H125.694C125.885 13.108 126.041 13.2632 126.041 13.4544V28.8157C126.041 29.0069 126.195 29.1607 126.385 29.1607H127.564C127.755 29.1607 127.909 29.0069 127.909 28.8157L127.91 12.1853C127.909 11.803 127.598 11.4925 127.216 11.4925ZM144.951 28.041C146.022 28.6303 147.192 28.994 148.462 29.1334C148.701 29.1592 148.908 28.9666 148.908 28.7266V27.8643C148.908 27.6558 148.751 27.4862 148.544 27.4589C147.593 27.3325 146.709 27.045 145.897 26.5894C144.77 25.9584 143.886 25.0832 143.247 23.965C142.607 22.8454 142.288 21.5964 142.288 20.2167C142.288 18.6313 142.711 17.2186 143.555 15.9768C143.993 15.3315 144.542 14.7637 145.173 14.3067C146.176 13.5795 147.302 13.1397 148.544 12.9744C148.75 12.9471 148.908 12.7775 148.908 12.5691V11.7082C148.908 11.4681 148.701 11.2741 148.462 11.3014C147.192 11.4408 146.02 11.8044 144.951 12.3938C143.547 13.167 142.441 14.2406 141.633 15.6117C140.826 16.9829 140.422 18.5178 140.422 20.2181C140.422 21.917 140.826 23.4519 141.633 24.8245C142.441 26.1942 143.547 27.2678 144.951 28.041ZM150.93 29.129C152.194 28.9853 153.365 28.6203 154.441 28.0281C155.862 27.2463 156.973 26.1726 157.772 24.8101C158.572 23.4476 158.97 21.9155 158.97 20.2167C158.97 18.5164 158.572 16.9858 157.772 15.6232C156.973 14.2607 155.864 13.1871 154.441 12.4052C153.365 11.813 152.194 11.448 150.93 11.3043C150.691 11.277 150.483 11.471 150.483 11.711V12.572C150.483 12.7789 150.64 12.9485 150.845 12.9772C151.791 13.1052 152.671 13.3926 153.481 13.8425C154.616 14.4734 155.509 15.3487 156.155 16.4669C156.803 17.585 157.127 18.834 157.127 20.2152C157.127 21.5949 156.803 22.844 156.155 23.9635C155.507 25.0817 154.616 25.957 153.481 26.588C152.668 27.0393 151.789 27.3268 150.845 27.4547C150.64 27.4819 150.483 27.6515 150.483 27.8599V28.7209C150.483 28.9623 150.69 29.1563 150.93 29.129ZM161.924 11.4925H158.019C157.829 11.4925 157.673 11.6478 157.673 11.8389V12.7616C157.673 12.9528 157.829 13.108 158.019 13.108H161.924C162.115 13.108 162.27 12.9528 162.27 12.7616V11.8389C162.27 11.6478 162.115 11.4925 161.924 11.4925ZM172.652 11.4925H164.574C164.192 11.4925 163.881 11.803 163.881 12.1853L163.883 28.8157C163.883 29.0069 164.038 29.1607 164.227 29.1607H165.406C165.597 29.1607 165.751 29.0055 165.751 28.8157V13.4544C165.751 13.2632 165.906 13.108 166.097 13.108H172.654C172.844 13.108 173 12.9528 173 12.7616V11.8389C172.999 11.6478 172.843 11.4925 172.652 11.4925ZM133.003 11.3805L129.393 11.3646C129.119 11.3646 128.897 11.586 128.897 11.8605V12.4943C128.897 12.7689 129.119 12.9901 129.393 12.9901L132.612 13.0118C135.268 13.0118 137.554 15.0526 137.678 17.7058C137.812 20.5386 135.554 22.877 132.752 22.877H129.492C129.325 22.877 129.187 23.0136 129.187 23.1817V24.1548C129.187 24.3229 129.325 24.4594 129.492 24.4594H133.16C136.85 24.4594 139.827 21.4024 139.694 17.6814C139.569 14.1386 136.55 11.3805 133.003 11.3805ZM102.691 19.9809C102.457 19.7049 102.47 19.2954 102.72 19.0338L107.805 13.7132C108.024 13.4831 107.862 13.1023 107.544 13.1023H106.52C106.326 13.1023 106.14 13.1799 106.005 13.3193L99.2134 20.3101C99.0884 20.4395 99.018 20.6119 99.018 20.7929V22.0032C99.018 22.3265 99.4089 22.4861 99.6359 22.2561L100.74 21.1365C100.889 20.9856 101.135 20.9928 101.274 21.1538L108.02 28.9149C108.156 29.0716 108.354 29.1607 108.56 29.1607H109.677C109.984 29.1607 110.152 28.8014 109.954 28.5657L102.691 19.9809Z" fill="#112222"/>
</g>
<defs>
<clipPath id="clip0_1_2">
<rect width="173" height="39.4393" fill="white"/>
</clipPath>
</defs>
</svg>
