<svg width="48" height="48" viewBox="0 0 48 48" fill="none" xmlns="http://www.w3.org/2000/svg">
<path d="M0 4.8C0 2.14903 2.14903 0 4.8 0H43.2C45.851 0 48 2.14903 48 4.8V43.2C48 45.851 45.851 48 43.2 48H4.8C2.14903 48 0 45.851 0 43.2V4.8Z" fill="#4DB6AC"/>
<path fill-rule="evenodd" clip-rule="evenodd" d="M24.2975 14.8933C24.1911 14.8526 24.0734 14.8521 23.9666 14.8918L14.7265 18.3319L23.9403 22.3876C24.0621 22.4412 24.2009 22.4405 24.3222 22.3857L33.2905 18.3316L24.2975 14.8933ZM23.3124 13.1347C23.8465 12.9358 24.4348 12.9384 24.9671 13.1419L35.0107 16.9819C36.1782 17.4283 36.2267 19.062 35.0877 19.5768L25.0946 24.0943C24.4882 24.3684 23.7939 24.3718 23.1849 24.1037L12.9139 19.5826C11.7584 19.074 11.8066 17.4182 12.9899 16.9777L23.3124 13.1347Z" fill="#FAFAFC"/>
<path fill-rule="evenodd" clip-rule="evenodd" d="M12.1089 21.7535C12.3173 21.2795 12.8705 21.0643 13.3445 21.2727L23.9306 25.9288C24.0523 25.9823 24.1911 25.9816 24.3123 25.9269L34.6079 21.2765C35.0797 21.0634 35.635 21.2731 35.8482 21.745C36.0613 22.2168 35.8516 22.7721 35.3797 22.9853L25.0841 27.6357C24.4781 27.9094 23.7844 27.9128 23.1757 27.6451L12.5896 22.9891C12.1156 22.7806 11.9004 22.2274 12.1089 21.7535Z" fill="#FAFAFC"/>
<path fill-rule="evenodd" clip-rule="evenodd" d="M12.1089 25.3187C12.3173 24.8448 12.8705 24.6296 13.3445 24.838L23.9306 29.4941C24.0523 29.5476 24.1911 29.5469 24.3123 29.4922L34.6079 24.8418C35.0797 24.6287 35.635 24.8384 35.8482 25.3103C36.0613 25.7821 35.8516 26.3374 35.3797 26.5506L25.0841 31.201C24.4781 31.4747 23.7844 31.4781 23.1757 31.2104L12.5896 26.5544C12.1156 26.3459 11.9004 25.7927 12.1089 25.3187Z" fill="#FAFAFC"/>
<path fill-rule="evenodd" clip-rule="evenodd" d="M12.1089 28.9329C12.3173 28.4589 12.8705 28.2437 13.3445 28.4522L23.9306 33.1082C24.0523 33.1618 24.1911 33.1611 24.3123 33.1063L34.6079 28.456C35.0797 28.2428 35.635 28.4526 35.8482 28.9244C36.0613 29.3963 35.8516 29.9516 35.3797 30.1647L25.0841 34.8151C24.4781 35.0888 23.7844 35.0923 23.1757 34.8246L12.5896 30.1685C12.1156 29.9601 11.9004 29.4069 12.1089 28.9329Z" fill="#FAFAFC"/>
</svg>
