<svg width="48" height="48" viewBox="0 0 48 48" fill="none" xmlns="http://www.w3.org/2000/svg">
<rect width="48" height="47.8125" rx="4.8" fill="#E57373"/>
<path fill-rule="evenodd" clip-rule="evenodd" d="M13.8898 25.8911C13.8898 27.5657 15.258 28.9232 16.9458 28.9232L16.9458 28.9232C17.4676 28.9232 17.8907 29.3429 17.8907 29.8607L17.8907 33.9375L21.216 33.9375C21.3111 31.401 23.3759 29.3438 25.9478 29.3438C28.5197 29.3438 30.5845 31.401 30.6796 33.9375L34.1102 33.9375L34.1102 17.8446L29.9703 17.8446C29.4485 17.8446 29.0254 17.4249 29.0254 16.9071C29.0254 15.2325 27.6572 13.875 25.9694 13.875C24.2816 13.875 22.9134 15.2325 22.9134 16.9071C22.9134 17.4249 22.4903 17.8446 21.9685 17.8446L17.8907 17.8446L17.8907 21.9214C17.8907 22.4392 17.4676 22.8589 16.9458 22.8589C15.258 22.8589 13.8898 24.2165 13.8898 25.8911ZM16.0009 30.7088C13.7214 30.2712 12 28.2806 12 25.8911C12 23.5015 13.7214 21.5109 16.0009 21.0734L16.0009 17.8446C16.0009 16.8091 16.847 15.9696 17.8907 15.9696L21.1138 15.9696C21.5548 13.7079 23.5611 12 25.9694 12C28.3777 12 30.384 13.7079 30.825 15.9696L34.1102 15.9696C35.1539 15.9696 36 16.8091 36 17.8446L36 33.9375C36 34.973 35.1539 35.8125 34.1102 35.8125L29.6649 35.8125C29.3826 35.8125 29.1151 35.6872 28.9356 35.471C28.7561 35.2548 28.6835 34.9703 28.7376 34.6953C28.774 34.5102 28.7933 34.318 28.7933 34.1203C28.7933 32.4995 27.501 31.2188 25.9478 31.2188C24.3946 31.2188 23.1024 32.4995 23.1024 34.1203C23.1024 34.318 23.1216 34.5102 23.1581 34.6953C23.2122 34.9703 23.1395 35.2548 22.9601 35.471C22.7806 35.6872 22.513 35.8125 22.2307 35.8125L17.8907 35.8125C16.847 35.8125 16.0009 34.973 16.0009 33.9375L16.0009 30.7088Z" fill="#FAFAFC"/>
</svg>
