<svg width="32" height="32" viewBox="0 0 32 32" fill="none" xmlns="http://www.w3.org/2000/svg">
<path d="M0 16C0 7.16344 7.16344 0 16 0C24.8366 0 32 7.16344 32 16C32 24.8366 24.8366 32 16 32C7.16344 32 0 24.8366 0 16Z" fill="#F56300"/>
<path fill-rule="evenodd" clip-rule="evenodd" d="M6.05859 10.0853C6.05859 7.8506 7.87014 6.03906 10.1048 6.03906H13.5117C14.701 6.03906 15.6652 7.00321 15.6652 8.19253V9.54057H21.3821C23.9217 9.54057 25.9805 11.5993 25.9805 14.139V21.3625C25.9805 23.9022 23.9217 25.9609 21.3821 25.9609H10.657C8.11737 25.9609 6.05859 23.9022 6.05859 21.3625V18.3659V14.139V10.0853ZM14.1027 8.19253V9.54057H10.657C9.49353 9.54057 8.431 9.97266 7.62109 10.6851V10.0853C7.62109 8.71355 8.73308 7.60156 10.1048 7.60156H13.5117C13.8381 7.60156 14.1027 7.86615 14.1027 8.19253ZM7.62109 18.3659L7.62109 14.139C7.62109 12.4623 8.98031 11.1031 10.657 11.1031H21.3821C23.0588 11.1031 24.418 12.4623 24.418 14.139V21.3625C24.418 23.0392 23.0588 24.3984 21.3821 24.3984H10.657C8.98031 24.3984 7.62109 23.0392 7.62109 21.3625L7.62109 18.3659ZM10.9565 12.9003C10.525 12.9003 10.1753 13.25 10.1753 13.6815C10.1753 14.113 10.525 14.4628 10.9565 14.4628H19.2372C19.6687 14.4628 20.0184 14.113 20.0184 13.6815C20.0184 13.25 19.6687 12.9003 19.2372 12.9003H10.9565ZM10.1753 17.7508C10.1753 17.3193 10.525 16.9695 10.9565 16.9695H15.5464C15.9778 16.9695 16.3276 17.3193 16.3276 17.7508C16.3276 18.1823 15.9778 18.532 15.5464 18.532H10.9565C10.525 18.532 10.1753 18.1823 10.1753 17.7508ZM10.9565 20.9916C10.525 20.9916 10.1753 21.3413 10.1753 21.7728C10.1753 22.2043 10.525 22.5541 10.9565 22.5541H12.8019C13.2334 22.5541 13.5832 22.2043 13.5832 21.7728C13.5832 21.3413 13.2334 20.9916 12.8019 20.9916H10.9565Z" fill="white"/>
</svg>
