<svg width="25" height="25" viewBox="0 0 25 25" fill="none" xmlns="http://www.w3.org/2000/svg">
<path fill-rule="evenodd" clip-rule="evenodd" d="M0.5 12.0036C0.5 5.37633 5.87269 0.00378418 12.4999 0.00378418C19.1275 0.00378418 24.5 5.37633 24.5 12.0036C24.5 18.6315 19.1275 24.0038 12.4999 24.0038C5.87269 24.0038 0.5 18.6315 0.5 12.0036ZM5.65726 9.25433C9.34982 8.13362 15.7302 8.34484 19.5983 10.642C20.1303 10.9587 20.8197 10.7829 21.1361 10.2495C21.4522 9.71703 21.2774 9.02821 20.7439 8.71153C16.2909 6.06817 9.2445 5.8197 5.00556 7.10634C4.41217 7.28661 4.07787 7.91324 4.25756 8.50662C4.43711 9.09957 5.06416 9.43431 5.65726 9.25433ZM18.1847 14.3525C18.6245 14.6229 19.2003 14.4847 19.4717 14.0444C19.7421 13.605 19.6036 13.029 19.1639 12.7582C15.46 10.4819 10.0419 9.8414 5.68357 11.164C5.18963 11.3145 4.91063 11.8361 5.05966 12.3307C5.20998 12.8247 5.73257 13.1035 6.22723 12.9541C10.0424 11.7959 14.96 12.3703 18.1847 14.3525ZM18.0033 17.3119C17.7876 17.6656 17.3272 17.7763 16.9748 17.5608C14.157 15.8386 10.6101 15.4497 6.43308 16.4037C6.03057 16.496 5.62934 16.2438 5.53763 15.8414C5.44535 15.4389 5.69669 15.0377 6.10007 14.9458C10.6712 13.9009 14.5921 14.3506 17.7551 16.2834C18.1077 16.4987 18.2188 16.9594 18.0033 17.3119Z" fill="#FAFAFC"/>
</svg>
