<svg width="51" height="25" viewBox="0 0 51 25" fill="none" xmlns="http://www.w3.org/2000/svg">
<g clip-path="url(#clip0_1035_3731)">
<path d="M28.6835 7.10895V13.739C28.6718 14.5985 28.9101 15.4427 29.3694 16.1686C29.8308 16.8821 30.4803 17.4536 31.2458 17.8198C32.0732 18.2149 32.9804 18.4131 33.8968 18.3992C34.8336 18.4129 35.7614 18.2148 36.6113 17.8198C37.3925 17.458 38.0591 16.8873 38.5379 16.1705C39.0097 15.4473 39.2552 14.5992 39.243 13.7352V7.10895C39.2468 6.91485 39.2106 6.72205 39.1366 6.54261C39.0627 6.36317 38.9527 6.20094 38.8134 6.06606C38.5411 5.80146 38.1754 5.65566 37.7961 5.66049C37.6053 5.65655 37.4157 5.69132 37.2386 5.76271C37.0615 5.83411 36.9006 5.94065 36.7657 6.07595C36.6307 6.21125 36.5244 6.3725 36.4532 6.55002C36.382 6.72753 36.3473 6.91765 36.3512 7.10895V13.739C36.3599 14.0785 36.2622 14.4122 36.0719 14.6931C35.8612 14.9917 35.5735 15.2274 35.2396 15.3748C34.817 15.5622 34.3588 15.6551 33.8968 15.6471C33.4594 15.6574 33.0253 15.5682 32.6272 15.3864C32.305 15.2387 32.0297 15.0048 31.8315 14.7105C31.6461 14.4233 31.5514 14.0868 31.5599 13.7448V7.10895C31.564 6.91497 31.5282 6.72223 31.4546 6.54278C31.381 6.36333 31.2712 6.20104 31.1322 6.06606C30.8598 5.80164 30.4941 5.65587 30.115 5.66049C29.9228 5.65628 29.7319 5.69165 29.5539 5.7644C29.376 5.83715 29.2148 5.94574 29.0804 6.08344C28.8193 6.36001 28.6768 6.72821 28.6835 7.10895V7.10895Z" fill="#969BA7"/>
<path d="M33.897 18.3973C34.8338 18.4121 35.7619 18.214 36.6115 17.8179C37.3935 17.4583 38.0605 16.888 38.538 16.1706C39.0107 15.4477 39.2563 14.5994 39.2432 13.7352V7.109C39.2473 6.91502 39.2115 6.72228 39.1379 6.54283C39.0643 6.36338 38.9545 6.20109 38.8155 6.06611C38.543 5.80204 38.1772 5.65691 37.7983 5.66248C37.6073 5.65744 37.4173 5.6914 37.2399 5.76228C37.0624 5.83317 36.9012 5.93951 36.766 6.07482C36.6309 6.21013 36.5246 6.37159 36.4536 6.54938C36.3827 6.72717 36.3486 6.91757 36.3533 7.109V12.8893C36.3533 12.8893 36.8292 16.6862 33.897 18.3973Z" fill="#969BA7"/>
<path d="M25.8977 8.44157H18.3841C18.1977 8.44854 18.0119 8.41776 17.8376 8.35106C17.6634 8.28437 17.5044 8.18314 17.37 8.05342C17.2357 7.9237 17.1289 7.76816 17.0559 7.5961C16.9829 7.42403 16.9453 7.23899 16.9453 7.05202C16.9453 6.86505 16.9829 6.68001 17.0559 6.50794C17.1289 6.33588 17.2357 6.18034 17.37 6.05062C17.5044 5.9209 17.6634 5.81967 17.8376 5.75298C18.0119 5.68628 18.1977 5.6555 18.3841 5.66246H25.8977C26.2564 5.67587 26.5959 5.82814 26.845 6.08727C27.094 6.34639 27.2331 6.6922 27.2331 7.05202C27.2331 7.41184 27.094 7.75765 26.845 8.01677C26.5959 8.2759 26.2564 8.42817 25.8977 8.44157V8.44157Z" fill="#969BA7"/>
<path d="M25.8631 18.2311H18.2108C18.0244 18.2381 17.8385 18.2073 17.6643 18.1406C17.4901 18.0739 17.331 17.9727 17.1967 17.843C17.0624 17.7132 16.9555 17.5577 16.8826 17.3856C16.8096 17.2136 16.772 17.0285 16.772 16.8416C16.772 16.6546 16.8096 16.4696 16.8826 16.2975C16.9555 16.1254 17.0624 15.9699 17.1967 15.8402C17.331 15.7105 17.4901 15.6092 17.6643 15.5425C17.8385 15.4758 18.0244 15.445 18.2108 15.452H25.8631C26.0495 15.445 26.2353 15.4758 26.4096 15.5425C26.5838 15.6092 26.7428 15.7105 26.8772 15.8402C27.0115 15.9699 27.1183 16.1254 27.1913 16.2975C27.2643 16.4696 27.3019 16.6546 27.3019 16.8416C27.3019 17.0285 27.2643 17.2136 27.1913 17.3856C27.1183 17.5577 27.0115 17.7132 26.8772 17.843C26.7428 17.9727 26.5838 18.0739 26.4096 18.1406C26.2353 18.2073 26.0495 18.2381 25.8631 18.2311V18.2311Z" fill="#969BA7"/>
<path d="M18.3613 18.2311C17.897 18.2311 17.6427 18.1751 17.3441 17.9357C17.2017 17.8217 17.0831 17.6806 16.9952 17.5207C16.9073 17.3607 16.8517 17.1849 16.8316 17.0033C16.8116 16.8218 16.8275 16.638 16.8784 16.4626C16.9293 16.2872 17.0142 16.1236 17.1283 15.9812L24.8153 6.18382C25.0497 5.91048 25.3809 5.73909 25.7389 5.70578C26.097 5.67247 26.454 5.77986 26.7346 6.00529C27.0152 6.23073 27.1975 6.55659 27.243 6.91416C27.2886 7.27173 27.1939 7.63307 26.9788 7.92197L19.2918 17.7193C19.1781 17.8619 19.0373 17.9806 18.8776 18.0684C18.7179 18.1562 18.5424 18.2115 18.3613 18.2311V18.2311Z" fill="#969BA7"/>
<path d="M49.9509 7.79271C49.5886 7.13457 49.051 6.59029 48.3981 6.22065C47.7148 5.84143 46.9442 5.64833 46.1633 5.66058H42.3256C41.9474 5.65616 41.5826 5.80116 41.3103 6.06422C41.1709 6.19946 41.0609 6.36203 40.9869 6.54179C40.913 6.72155 40.8768 6.91465 40.8806 7.10904V16.721C40.8791 16.9117 40.9154 17.1007 40.9875 17.2771C41.0596 17.4536 41.1659 17.6139 41.3004 17.7487C41.4349 17.8835 41.5948 17.9901 41.7708 18.0624C41.9468 18.1346 42.1354 18.171 42.3256 18.1695C42.5193 18.174 42.7118 18.138 42.8909 18.0638C43.07 17.9897 43.2318 17.879 43.3659 17.7388C43.4967 17.6041 43.5998 17.4449 43.6692 17.2703C43.7386 17.0956 43.773 16.909 43.7705 16.721V14.3224H46.1594C46.9358 14.3343 47.7023 14.1475 48.3865 13.7797C49.038 13.4239 49.5767 12.8919 49.9413 12.2443C50.3173 11.5738 50.51 10.8156 50.5 10.0465C50.5124 9.26052 50.3233 8.4845 49.9509 7.79271V7.79271ZM47.4753 10.8306C47.3542 11.0465 47.1762 11.2249 46.9609 11.3463C46.7167 11.4801 46.4415 11.5467 46.1633 11.5394H43.7705V8.44935H46.1594C46.433 8.43925 46.704 8.50615 46.9416 8.64248C47.163 8.7733 47.3437 8.96318 47.4637 9.19096C47.5998 9.45495 47.6662 9.74951 47.6564 10.0465C47.6662 10.3193 47.6037 10.5899 47.4753 10.8306V10.8306Z" fill="#969BA7"/>
<path d="M49.951 7.82153C49.7795 11.2438 46.8974 11.5392 46.2809 11.5624H43.7764V14.3493H46.1595C46.9354 14.3624 47.7016 14.1756 48.3847 13.8066C49.0361 13.4508 49.5748 12.9188 49.9394 12.2712C50.3132 11.6001 50.504 10.842 50.4924 10.0734C50.5071 9.2887 50.3207 8.51334 49.951 7.82153V7.82153Z" fill="#969BA7"/>
<path d="M10.3715 14.724C10.3201 14.7627 10.2712 14.8046 10.2251 14.8495L10.1423 14.9345L10.0672 15.0137L9.91495 15.174C9.91495 15.174 7.02511 18.1269 6.83246 18.3278H2.32238C1.84566 18.3278 1.38847 18.1379 1.05137 17.8C0.714279 17.4621 0.524902 17.0038 0.524902 16.5259C0.524902 16.048 0.714279 15.5897 1.05137 15.2518C1.38847 14.9138 1.84566 14.724 2.32238 14.724H10.3715Z" fill="#969BA7"/>
<path d="M13.1517 7.474C13.1512 7.95156 12.9616 8.40938 12.6246 8.74688C12.2876 9.08438 11.8307 9.27396 11.3543 9.27396H3.37061C3.40721 9.24692 3.44189 9.21602 3.47657 9.18512C3.59601 9.0731 3.68656 8.96881 3.78867 8.86259C3.78867 8.86259 6.69585 5.88649 6.90199 5.67212H11.3543C11.831 5.67212 12.2882 5.86196 12.6253 6.19988C12.9624 6.5378 13.1517 6.99611 13.1517 7.474Z" fill="#969BA7"/>
<path d="M2.32266 18.3276C1.96897 18.326 1.62364 18.2197 1.3299 18.0222C1.03617 17.8247 0.807085 17.5447 0.671342 17.2173C0.535599 16.8899 0.499229 16.5296 0.566786 16.1816C0.634343 15.8336 0.802824 15.5133 1.05113 15.2608L10.0828 6.19922C10.248 6.02463 10.4464 5.88497 10.6664 5.78849C10.8863 5.69201 11.1232 5.64067 11.3632 5.63749C11.6033 5.63431 11.8415 5.67935 12.0639 5.76997C12.2863 5.86058 12.4883 5.99493 12.658 6.16509C12.8278 6.33524 12.9618 6.53776 13.0522 6.76068C13.1426 6.9836 13.1875 7.22242 13.1843 7.46303C13.1812 7.70365 13.1299 7.94119 13.0337 8.16164C12.9375 8.38209 12.7981 8.58098 12.624 8.74658L3.59419 17.8004C3.42737 17.968 3.22915 18.1008 3.01093 18.1913C2.79271 18.2818 2.55881 18.3281 2.32266 18.3276V18.3276Z" fill="#969BA7"/>
<path d="M0.500005 7.6362C0.4994 7.39206 0.550624 7.15059 0.650274 6.92783C0.749924 6.70507 0.895719 6.50611 1.07797 6.34417L6.61683 0.699046C7.01563 0.324377 7.38938 0.00378524 8.01359 0.00378524C8.24566 0.00353112 8.4755 0.0491655 8.68996 0.138076C8.90441 0.226986 9.09927 0.357426 9.26337 0.521927C9.42747 0.686429 9.55759 0.881761 9.64628 1.09674C9.73497 1.31172 9.7805 1.54213 9.78024 1.77477C9.75459 2.257 9.56096 2.71491 9.2331 3.06872C9.1387 3.17301 4.83476 7.34264 4.83476 7.34264L3.4014 8.69454C3.27022 8.81451 3.12907 8.92306 2.97949 9.01899C2.72626 9.18175 2.43258 9.27007 2.1318 9.27392C1.91735 9.27392 1.705 9.23155 1.50689 9.14922C1.30879 9.06689 1.12882 8.94623 0.977266 8.79413C0.825714 8.64203 0.705557 8.46147 0.623665 8.26278C0.541773 8.0641 0.499752 7.85118 0.500005 7.6362V7.6362Z" fill="#969BA7"/>
<path d="M13.2001 16.3713C13.2005 16.6155 13.1493 16.8569 13.0496 17.0796C12.95 17.3024 12.8042 17.5013 12.6221 17.6634L7.08323 23.3066C6.68443 23.6928 6.3126 24.0038 5.67877 24.0038C5.4466 24.0038 5.21672 23.9579 5.00225 23.8688C4.78778 23.7796 4.59294 23.649 4.42887 23.4844C4.2648 23.3197 4.13471 23.1242 4.04604 22.9092C3.95737 22.6941 3.91186 22.4636 3.91211 22.2308C3.93691 21.749 4.13068 21.2914 4.45925 20.9388C4.56136 20.8345 8.86529 16.6572 8.86529 16.6572L10.2987 15.3053C10.4295 15.1843 10.5707 15.0751 10.7206 14.9789C10.9682 14.828 11.2514 14.7459 11.5411 14.7411C11.8309 14.7362 12.1167 14.8088 12.3692 14.9514C12.6216 15.094 12.8317 15.3014 12.9777 15.5523C13.1237 15.8032 13.2005 16.0886 13.2001 16.3791V16.3713Z" fill="#969BA7"/>
</g>
<defs>
<clipPath id="clip0_1035_3731">
<rect width="50" height="24" fill="white" transform="translate(0.5 0.00378418)"/>
</clipPath>
</defs>
</svg>
