<svg width="25" height="25" viewBox="0 0 25 25" fill="none" xmlns="http://www.w3.org/2000/svg">
<path fill-rule="evenodd" clip-rule="evenodd" d="M12.8999 0.00378418C6.27249 0.00378418 0.899902 5.37637 0.899902 12.0038C0.899902 18.6312 6.27249 24.0038 12.8999 24.0038C19.5273 24.0038 24.8999 18.6312 24.8999 12.0038C24.8999 5.37637 19.5273 0.00378418 12.8999 0.00378418ZM6.66077 9.94272H9.38023V18.1136H6.66077V9.94272ZM9.55925 7.41513C9.5416 6.61399 8.9687 6.00378 8.03838 6.00378C7.10807 6.00378 6.49987 6.61399 6.49987 7.41513C6.49987 8.19969 7.0901 8.82746 8.00308 8.82746H8.02046C8.9687 8.82746 9.55925 8.19969 9.55925 7.41513ZM16.0565 9.75085C17.8461 9.75085 19.1877 10.9189 19.1877 13.4287L19.1875 18.1136H16.4682V13.7422C16.4682 12.6442 16.0747 11.8949 15.0902 11.8949C14.3389 11.8949 13.8914 12.4 13.6949 12.8879C13.6229 13.0627 13.6053 13.3063 13.6053 13.5505V18.1138H10.8855C10.8855 18.1138 10.9214 10.7097 10.8855 9.94294H13.6053V11.1003C13.9662 10.5439 14.6127 9.75085 16.0565 9.75085Z" fill="#FAFAFC"/>
</svg>
