<svg width="25" height="25" viewBox="0 0 25 25" fill="none" xmlns="http://www.w3.org/2000/svg">
<path d="M12.5217 0.09375C5.90745 0.09375 0.543945 5.5477 0.543945 12.276C0.543945 17.6586 3.97594 22.2251 8.73509 23.8359C9.3337 23.9487 9.55347 23.5717 9.55347 23.2499C9.55347 22.9594 9.54236 21.9997 9.5372 20.9818C6.20497 21.7187 5.50183 19.5444 5.50183 19.5444C4.95697 18.1363 4.17191 17.7619 4.17191 17.7619C3.08517 17.0057 4.25383 17.0213 4.25383 17.0213C5.45661 17.107 6.08993 18.2767 6.08993 18.2767C7.15823 20.1391 8.89198 19.6007 9.57548 19.2894C9.68299 18.5022 9.9934 17.9644 10.3359 17.6604C7.67552 17.3523 4.87882 16.3077 4.87882 11.6397C4.87882 10.3097 5.34672 9.22294 6.11294 8.3698C5.98857 8.06275 5.57859 6.82389 6.22897 5.14584C6.22897 5.14584 7.23479 4.81842 9.52371 6.39459C10.4792 6.12467 11.5038 5.9893 12.5217 5.98466C13.5396 5.9893 14.5651 6.12467 15.5223 6.39459C17.8085 4.81842 18.8129 5.14584 18.8129 5.14584C19.4649 6.82389 19.0547 8.06275 18.9303 8.3698C19.6983 9.22294 20.1631 10.3097 20.1631 11.6397C20.1631 16.3188 17.361 17.3491 14.6938 17.6507C15.1234 18.0287 15.5063 18.7701 15.5063 19.9067C15.5063 21.5365 15.4924 22.8484 15.4924 23.2499C15.4924 23.5741 15.708 23.954 16.3151 23.8343C21.0717 22.2216 24.4993 17.6567 24.4993 12.276C24.4993 5.5477 19.1366 0.09375 12.5217 0.09375" fill="#FAFAFC"/>
<path d="M5.08055 17.585C5.05417 17.6457 4.96055 17.6636 4.87526 17.6221C4.78838 17.5823 4.73959 17.4998 4.76775 17.4391C4.79354 17.3768 4.88736 17.3596 4.97403 17.401C5.06111 17.4409 5.1107 17.5242 5.08055 17.585" fill="#FAFAFC"/>
<path d="M5.56589 18.1353C5.50877 18.1891 5.3971 18.1641 5.32133 18.079C5.24298 17.9941 5.2283 17.8805 5.28622 17.8258C5.34513 17.772 5.45343 17.7972 5.53197 17.8821C5.61032 17.968 5.62559 18.0808 5.56589 18.1353" fill="#FAFAFC"/>
<path d="M6.03824 18.8369C5.96485 18.8887 5.84485 18.8401 5.77066 18.7318C5.69728 18.6234 5.69728 18.4935 5.77225 18.4415C5.84663 18.3894 5.96485 18.4362 6.04002 18.5438C6.11321 18.6537 6.11321 18.7838 6.03824 18.8369" fill="#FAFAFC"/>
<path d="M6.68488 19.5147C6.61923 19.5884 6.47939 19.5686 6.37705 19.4681C6.27232 19.3699 6.24316 19.2305 6.30901 19.1569C6.37546 19.083 6.51609 19.1038 6.61923 19.2035C6.72316 19.3015 6.7549 19.4419 6.68488 19.5147" fill="#FAFAFC"/>
<path d="M7.57769 19.9083C7.54873 20.0037 7.41405 20.0471 7.27838 20.0065C7.14291 19.9648 7.05425 19.853 7.08162 19.7566C7.10979 19.6606 7.24506 19.6154 7.38172 19.6587C7.51699 19.7003 7.60585 19.8113 7.57769 19.9083" fill="#FAFAFC"/>
<path d="M8.55768 19.9814C8.56105 20.0819 8.44601 20.1652 8.3036 20.1668C8.16039 20.1702 8.04456 20.0889 8.04297 19.9901C8.04297 19.8886 8.15543 19.8061 8.29864 19.8037C8.44105 19.8008 8.55768 19.8815 8.55768 19.9814" fill="#FAFAFC"/>
<path d="M9.47016 19.8234C9.48722 19.9214 9.38824 20.0221 9.24682 20.0487C9.10778 20.0747 8.97905 20.0142 8.9614 19.917C8.94414 19.8165 9.0449 19.7159 9.18374 19.6898C9.32537 19.6648 9.45211 19.7237 9.47016 19.8234" fill="#FAFAFC"/>
</svg>
