<svg width="25" height="25" viewBox="0 0 25 25" fill="none" xmlns="http://www.w3.org/2000/svg">
<path fill-rule="evenodd" clip-rule="evenodd" d="M12.1001 0.00378418C5.47268 0.00378418 0.100098 5.37637 0.100098 12.0038C0.100098 18.6312 5.47268 24.0038 12.1001 24.0038C18.7275 24.0038 24.1001 18.6312 24.1001 12.0038C24.1001 5.37637 18.7275 0.00378418 12.1001 0.00378418ZM11.7659 10.1728L11.7407 9.75754C11.6652 8.68134 12.3283 7.69835 13.3775 7.31702C13.7636 7.18144 14.4183 7.16449 14.8464 7.28313C15.0143 7.33397 15.3332 7.50345 15.5599 7.65598L15.9712 7.93563L16.4244 7.79157C16.6762 7.7153 17.012 7.58819 17.1631 7.50345C17.3058 7.42719 17.4317 7.38482 17.4317 7.41024C17.4317 7.5543 17.1211 8.04579 16.8609 8.31696C16.5084 8.69829 16.6091 8.73219 17.3225 8.47796C17.7506 8.33391 17.759 8.33391 17.6751 8.49491C17.6247 8.57965 17.3645 8.87624 17.0875 9.14741C16.6175 9.61348 16.5923 9.66433 16.5923 10.0541C16.5923 10.6558 16.3069 11.9099 16.0215 12.5963C15.4927 13.8844 14.3596 15.2148 13.2264 15.8843C11.6316 16.8249 9.50796 17.0621 7.72009 16.5113C7.12414 16.3249 6.1001 15.8504 6.1001 15.7656C6.1001 15.7402 6.41067 15.7063 6.78839 15.6978C7.5774 15.6809 8.36641 15.4606 9.03791 15.0708L9.49117 14.7996L8.97076 14.6216C8.23211 14.3674 7.569 13.7827 7.40113 13.2319C7.35077 13.0539 7.36755 13.0455 7.8376 13.0455L8.32444 13.037L7.91315 12.8421C7.42631 12.5963 6.98144 12.1811 6.7632 11.7574C6.60372 11.4523 6.40227 10.6812 6.46103 10.6219C6.47782 10.5965 6.65409 10.6473 6.85554 10.7151C7.4347 10.927 7.51025 10.8761 7.1745 10.5202C6.54497 9.87618 6.35191 8.91861 6.65409 8.01189L6.79678 7.60514L7.35077 8.15595C8.48392 9.26605 9.81853 9.92702 11.3462 10.1219L11.7659 10.1728Z" fill="#FAFAFC"/>
</svg>
