<svg width="35" height="35" viewBox="0 0 35 35" fill="none" xmlns="http://www.w3.org/2000/svg">
<rect width="27" height="27" transform="translate(4 4)" fill="#FF6D00"/>
<path d="M30.0781 17.288C30.0814 17.2022 30.0781 17.1197 30.0748 17.0339C29.9758 15.2585 28.4545 13.8989 26.6758 13.9979C24.9334 14.0969 23.5936 15.5621 23.6365 17.2946C23.6365 17.2979 23.6365 17.2979 23.6365 17.3012C23.6629 19.9445 21.9238 22.5251 19.3333 23.3237C17.7724 23.8154 16.1059 23.6603 14.6539 22.8947C13.5484 22.3106 12.6244 21.4526 12.0502 20.3669C11.6575 19.6079 11.4232 18.7631 11.3737 17.882C11.2813 16.2485 11.8324 14.6711 12.928 13.4468C14.7727 11.3843 17.9539 10.9025 20.3695 12.1235C20.3695 12.1235 20.3695 12.1235 20.3728 12.1235C20.3926 12.1334 20.4091 12.1433 20.4289 12.1499C20.4454 12.1565 20.4619 12.1664 20.4784 12.173C20.8711 12.3413 21.3001 12.4337 21.7522 12.4337C23.5408 12.4337 24.9928 10.985 24.9928 9.19314C24.9928 7.95564 24.2998 6.88315 23.2801 6.33535C23.2768 6.33535 23.2768 6.33205 23.2735 6.32875C23.1877 6.28585 23.1019 6.24955 23.0161 6.20665C21.1087 5.27605 18.9868 4.84045 16.8088 4.96255C13.4494 5.15065 10.3639 6.63235 8.12325 9.13704C5.87925 11.6582 4.74406 14.8889 4.93216 18.245C5.10706 21.3734 6.42705 24.1982 8.63144 26.3828C8.63474 26.3861 8.63804 26.3861 8.63804 26.3894C8.75024 26.4983 8.86244 26.6072 8.98124 26.7161C9.00764 26.7392 9.03404 26.7656 9.06044 26.7887C9.08684 26.8118 9.10994 26.8349 9.13634 26.858C9.16274 26.8811 9.18914 26.9009 9.21554 26.924C9.95144 27.5708 10.7698 28.1384 11.6575 28.6037C14.6341 30.1712 18.0463 30.4814 21.2605 29.4848C26.5141 27.8546 30.0583 22.6472 30.088 17.2946C30.0781 17.2946 30.0781 17.2913 30.0781 17.288Z" fill="white"/>
</svg>
