<svg width="48" height="48" viewBox="0 0 48 48" fill="none" xmlns="http://www.w3.org/2000/svg">
<path d="M0 24C0 10.7452 10.7452 0 24 0V0C37.2548 0 48 10.7452 48 24V24C48 37.2548 37.2548 48 24 48V48C10.7452 48 0 37.2548 0 24V24Z" fill="#F56300"/>
<path fill-rule="evenodd" clip-rule="evenodd" d="M35.0632 21.2676C35.3729 20.8527 35.2877 20.2652 34.8728 19.9555L24.5292 12.2332C24.1956 11.9841 23.7376 11.9849 23.4049 12.2352L15.7873 17.9641V15.2035C15.7873 14.6858 15.3675 14.266 14.8498 14.266C14.332 14.266 13.9123 14.6858 13.9123 15.2035L13.9123 19.1168C13.9123 19.198 13.9226 19.2768 13.942 19.3519L13.1368 19.9575C12.723 20.2687 12.6398 20.8564 12.951 21.2702C13.1904 21.5886 13.5935 21.7112 13.9552 21.6092V28.7697C13.9552 32.737 17.1713 35.9531 21.1386 35.9531H26.8168C30.7841 35.9531 34.0003 32.737 34.0003 28.7697V21.5912C34.377 21.724 34.8116 21.6045 35.0632 21.2676ZM15.8302 20.2779L23.9704 14.1559L32.1253 20.2442V28.7697C32.1253 31.2811 30.3812 33.3852 28.0382 33.9369V28.94C28.0382 27.1678 26.6016 25.7312 24.8295 25.7312H23.1828C21.4106 25.7312 19.974 27.1678 19.974 28.94V33.95C17.6024 33.4191 15.8302 31.3014 15.8302 28.7697V20.2779ZM21.849 34.0781H26.1632V28.94C26.1632 28.2033 25.5661 27.6062 24.8295 27.6062H23.1828C22.4462 27.6062 21.849 28.2033 21.849 28.94V34.0781Z" fill="white"/>
</svg>
