<svg width="48" height="48" viewBox="0 0 48 48" fill="none" xmlns="http://www.w3.org/2000/svg">
<path d="M0 24C0 10.7452 10.7452 0 24 0C37.2548 0 48 10.7452 48 24C48 37.2548 37.2548 48 24 48C10.7452 48 0 37.2548 0 24Z" fill="#F56300"/>
<path fill-rule="evenodd" clip-rule="evenodd" d="M12.0469 22.6751C12.0469 16.8053 16.8053 12.0469 22.6751 12.0469H25.3249C31.1947 12.0469 35.9531 16.8053 35.9531 22.6751V25.3249C35.9531 31.1947 31.1947 35.9531 25.3249 35.9531H22.6751C16.8053 35.9531 12.0469 31.1947 12.0469 25.3249V22.6751ZM22.6751 13.9219C17.8408 13.9219 13.9219 17.8408 13.9219 22.6751V25.3249C13.9219 30.1592 17.8408 34.0781 22.6751 34.0781H25.3249C30.1592 34.0781 34.0781 30.1592 34.0781 25.3249V22.6751C34.0781 17.8408 30.1592 13.9219 25.3249 13.9219H22.6751ZM17.3698 20.6849C17.6013 20.2218 18.1645 20.034 18.6276 20.2656L23.0552 22.4794C23.6322 22.7686 23.9965 23.3587 23.9965 24.0041C23.9965 24.6496 23.6322 25.2397 23.0552 25.5289L18.6276 27.7427C18.1645 27.9742 17.6013 27.7865 17.3698 27.3234C17.1382 26.8603 17.3259 26.2972 17.789 26.0656L21.9121 24.0041L17.789 21.9426C17.3259 21.7111 17.1382 21.148 17.3698 20.6849ZM25.9306 25.9584C25.4128 25.9584 24.9931 26.3781 24.9931 26.8959C24.9931 27.4136 25.4128 27.8334 25.9306 27.8334H30.0188C30.5366 27.8334 30.9563 27.4136 30.9563 26.8959C30.9563 26.3781 30.5366 25.9584 30.0188 25.9584H25.9306Z" fill="white"/>
</svg>
