<svg width="48" height="48" viewBox="0 0 48 48" fill="none" xmlns="http://www.w3.org/2000/svg">
<path d="M0 4.8C0 2.14903 2.14903 0 4.8 0H43.2C45.851 0 48 2.14903 48 4.8V43.2C48 45.851 45.851 48 43.2 48H4.8C2.14903 48 0 45.851 0 43.2V4.8Z" fill="#F06292"/>
<path fill-rule="evenodd" clip-rule="evenodd" d="M12.0469 22.6751C12.0469 16.8053 16.8053 12.0469 22.6751 12.0469H25.3249C31.1947 12.0469 35.9531 16.8053 35.9531 22.6751V25.3249C35.9531 31.1947 31.1947 35.9531 25.3249 35.9531H22.6751C16.8053 35.9531 12.0469 31.1947 12.0469 25.3249V22.6751ZM22.6751 13.9219C17.8408 13.9219 13.9219 17.8408 13.9219 22.6751V25.3249C13.9219 30.1592 17.8408 34.0781 22.6751 34.0781H25.3249C30.1592 34.0781 34.0781 30.1592 34.0781 25.3249V22.6751C34.0781 17.8408 30.1592 13.9219 25.3249 13.9219H22.6751Z" fill="#FAFAFC"/>
<path fill-rule="evenodd" clip-rule="evenodd" d="M17.3697 20.6849C17.6012 20.2218 18.1644 20.0341 18.6275 20.2656L23.0551 22.4794C23.6321 22.7686 23.9965 23.3587 23.9965 24.0042C23.9965 24.6496 23.6321 25.2397 23.0551 25.5289L18.6275 27.7427C18.1644 27.9743 17.6012 27.7866 17.3697 27.3234C17.1381 26.8603 17.3258 26.2972 17.789 26.0657L21.912 24.0042L17.789 21.9427C17.3258 21.7111 17.1381 21.148 17.3697 20.6849Z" fill="#FAFAFC"/>
<path fill-rule="evenodd" clip-rule="evenodd" d="M24.9932 26.8959C24.9932 26.3781 25.4129 25.9584 25.9307 25.9584H30.0189C30.5367 25.9584 30.9564 26.3781 30.9564 26.8959C30.9564 27.4137 30.5367 27.8334 30.0189 27.8334H25.9307C25.4129 27.8334 24.9932 27.4137 24.9932 26.8959Z" fill="#FAFAFC"/>
</svg>
