<svg width="48" height="48" viewBox="0 0 48 48" fill="none" xmlns="http://www.w3.org/2000/svg">
<path d="M0 4.8C0 2.14903 2.14903 0 4.8 0H43.2C45.851 0 48 2.14903 48 4.8V43.2C48 45.851 45.851 48 43.2 48H4.8C2.14903 48 0 45.851 0 43.2V4.8Z" fill="#7986CB"/>
<path fill-rule="evenodd" clip-rule="evenodd" d="M20.5474 14.9912C20.5474 14.4735 20.9671 14.0537 21.4849 14.0537H35.0626C35.5804 14.0537 36.0001 14.4735 36.0001 14.9912C36.0001 15.509 35.5804 15.9287 35.0626 15.9287H21.4849C20.9671 15.9287 20.5474 15.509 20.5474 14.9912Z" fill="#FAFAFC"/>
<path fill-rule="evenodd" clip-rule="evenodd" d="M20.5474 24.0051C20.5474 23.4873 20.9671 23.0676 21.4849 23.0676H35.0626C35.5804 23.0676 36.0001 23.4873 36.0001 24.0051C36.0001 24.5228 35.5804 24.9426 35.0626 24.9426H21.4849C20.9671 24.9426 20.5474 24.5228 20.5474 24.0051Z" fill="#FAFAFC"/>
<path fill-rule="evenodd" clip-rule="evenodd" d="M20.5474 33.0189C20.5474 32.5012 20.9671 32.0814 21.4849 32.0814H35.0626C35.5804 32.0814 36.0001 32.5012 36.0001 33.0189C36.0001 33.5367 35.5804 33.9564 35.0626 33.9564H21.4849C20.9671 33.9564 20.5474 33.5367 20.5474 33.0189Z" fill="#FAFAFC"/>
<path fill-rule="evenodd" clip-rule="evenodd" d="M12.0469 14.5919C12.0469 13.1604 13.2073 12 14.6388 12H15.3805C16.8119 12 17.9724 13.1604 17.9724 14.5919V15.3906C17.9724 16.8221 16.8119 17.9826 15.3805 17.9826H14.6388C13.2073 17.9826 12.0469 16.8221 12.0469 15.3906V14.5919ZM14.6388 13.875C14.2429 13.875 13.9219 14.196 13.9219 14.5919V15.3906C13.9219 15.7866 14.2429 16.1076 14.6388 16.1076H15.3805C15.7764 16.1076 16.0974 15.7866 16.0974 15.3906V14.5919C16.0974 14.196 15.7764 13.875 15.3805 13.875H14.6388Z" fill="#FAFAFC"/>
<path fill-rule="evenodd" clip-rule="evenodd" d="M12.0469 23.6058C12.0469 22.1743 13.2073 21.0139 14.6388 21.0139H15.3805C16.8119 21.0139 17.9724 22.1743 17.9724 23.6058V24.4045C17.9724 25.836 16.8119 26.9964 15.3805 26.9964H14.6388C13.2073 26.9964 12.0469 25.836 12.0469 24.4045V23.6058ZM14.6388 22.8889C14.2429 22.8889 13.9219 23.2098 13.9219 23.6058V24.4045C13.9219 24.8004 14.2429 25.1214 14.6388 25.1214H15.3805C15.7764 25.1214 16.0974 24.8004 16.0974 24.4045V23.6058C16.0974 23.2098 15.7764 22.8889 15.3805 22.8889H14.6388Z" fill="#FAFAFC"/>
<path fill-rule="evenodd" clip-rule="evenodd" d="M12.0469 32.6195C12.0469 31.188 13.2073 30.0276 14.6388 30.0276H15.3805C16.8119 30.0276 17.9724 31.188 17.9724 32.6195V33.4182C17.9724 34.8497 16.8119 36.0101 15.3805 36.0101H14.6388C13.2073 36.0101 12.0469 34.8497 12.0469 33.4182V32.6195ZM14.6388 31.9026C14.2429 31.9026 13.9219 32.2236 13.9219 32.6195V33.4182C13.9219 33.8142 14.2429 34.1351 14.6388 34.1351H15.3805C15.7764 34.1351 16.0974 33.8142 16.0974 33.4182V32.6195C16.0974 32.2236 15.7764 31.9026 15.3805 31.9026H14.6388Z" fill="#FAFAFC"/>
</svg>
