<svg width="32" height="32" viewBox="0 0 32 32" fill="none" xmlns="http://www.w3.org/2000/svg">
<path d="M0 16C0 7.16344 7.16344 0 16 0C24.8366 0 32 7.16344 32 16C32 24.8366 24.8366 32 16 32C7.16344 32 0 24.8366 0 16Z" fill="#F56300"/>
<path fill-rule="evenodd" clip-rule="evenodd" d="M14.8959 6.03906C10.0044 6.03906 6.03906 10.0044 6.03906 14.8959V16V17.1041C6.03906 21.9956 10.0044 25.9609 14.8959 25.9609H17.1041C21.9956 25.9609 25.9609 21.9956 25.9609 17.1041V14.8959C25.9609 10.0044 21.9956 6.03906 17.1041 6.03906H14.8959ZM7.60156 16.7812V17.1041C7.60156 20.9109 10.5178 24.0366 14.2381 24.3692C12.4992 22.1532 11.453 19.5284 11.2358 16.7812H7.60156ZM17.7619 24.3692C21.4822 24.0367 24.3984 20.9109 24.3984 17.1041V16.7812H20.7642C20.5469 19.5284 19.5008 22.1532 17.7619 24.3692ZM24.3984 15.2188V14.8959C24.3984 11.0891 21.4822 7.96333 17.7619 7.63082C19.5008 9.84681 20.5469 12.4716 20.7642 15.2188H24.3984ZM14.2381 7.63083C12.4992 9.84681 11.453 12.4716 11.2358 15.2188H7.60156V14.8959C7.60156 11.0891 10.5177 7.96337 14.2381 7.63083ZM16 7.95812C17.8492 10.0369 18.9591 12.5691 19.1961 15.2188H12.8038C13.0409 12.5691 14.1508 10.0369 16 7.95812ZM12.8038 16.7812H19.1961C18.9591 19.4309 17.8492 21.9631 16 24.0419C14.1508 21.9631 13.0409 19.4309 12.8038 16.7812Z" fill="white"/>
</svg>
