<svg width="25" height="25" viewBox="0 0 25 25" fill="none" xmlns="http://www.w3.org/2000/svg">
<path fill-rule="evenodd" clip-rule="evenodd" d="M12.7002 0.00378418C6.07278 0.00378418 0.700195 5.37637 0.700195 12.0038C0.700195 18.6312 6.07278 24.0038 12.7002 24.0038C19.3276 24.0038 24.7002 18.6312 24.7002 12.0038C24.7002 5.37637 19.3276 0.00378418 12.7002 0.00378418ZM10.0618 5.64246C10.7445 5.61139 10.9626 5.60379 12.7008 5.60379H12.6988C14.4374 5.60379 14.6548 5.61139 15.3375 5.64246C16.0188 5.67366 16.4841 5.78153 16.8921 5.93979C17.3135 6.10313 17.6695 6.3218 18.0255 6.6778C18.3815 7.03354 18.6002 7.39061 18.7642 7.81155C18.9215 8.21848 19.0295 8.68356 19.0615 9.3649C19.0922 10.0476 19.1002 10.2657 19.1002 12.0039C19.1002 13.742 19.0922 13.9596 19.0615 14.6423C19.0295 15.3234 18.9215 15.7886 18.7642 16.1956C18.6002 16.6164 18.3815 16.9735 18.0255 17.3292C17.6699 17.6852 17.3133 17.9045 16.8925 18.0679C16.4853 18.2262 16.0197 18.3341 15.3384 18.3653C14.6557 18.3963 14.4382 18.4039 12.7 18.4039C10.9619 18.4039 10.7439 18.3963 10.0613 18.3653C9.38006 18.3341 8.91486 18.2262 8.50765 18.0679C8.08698 17.9045 7.72991 17.6852 7.37431 17.3292C7.01844 16.9735 6.79977 16.6164 6.63616 16.1955C6.47803 15.7886 6.37016 15.3235 6.33883 14.6421C6.30789 13.9595 6.30016 13.742 6.30016 12.0039C6.30016 10.2657 6.30816 10.0474 6.33869 9.36476C6.36936 8.68369 6.47736 8.21848 6.63603 7.81141C6.80003 7.39061 7.0187 7.03354 7.37471 6.6778C7.73044 6.32193 8.08751 6.10326 8.50845 5.93979C8.91539 5.78153 9.38046 5.67366 10.0618 5.64246Z" fill="#FAFAFC"/>
<path fill-rule="evenodd" clip-rule="evenodd" d="M12.1267 6.75709C12.2382 6.75692 12.3581 6.75697 12.4875 6.75703L12.7008 6.75709C14.4096 6.75709 14.6122 6.76323 15.287 6.79389C15.911 6.82243 16.2497 6.92669 16.4753 7.0143C16.7739 7.1303 16.9869 7.26897 17.2107 7.49297C17.4347 7.71697 17.5734 7.93031 17.6897 8.22898C17.7773 8.45431 17.8817 8.79298 17.9101 9.41699C17.9407 10.0917 17.9474 10.2943 17.9474 12.0023C17.9474 13.7104 17.9407 13.913 17.9101 14.5877C17.8815 15.2117 17.7773 15.5504 17.6897 15.7757C17.5737 16.0744 17.4347 16.2871 17.2107 16.5109C16.9867 16.7349 16.7741 16.8736 16.4753 16.9896C16.2499 17.0776 15.911 17.1816 15.287 17.2101C14.6123 17.2408 14.4096 17.2475 12.7008 17.2475C10.9919 17.2475 10.7893 17.2408 10.1147 17.2101C9.49066 17.1813 9.15199 17.0771 8.92625 16.9895C8.62758 16.8735 8.41424 16.7348 8.19024 16.5108C7.96624 16.2868 7.82757 16.074 7.7113 15.7752C7.6237 15.5499 7.5193 15.2112 7.4909 14.5872C7.46023 13.9125 7.4541 13.7098 7.4541 12.0007C7.4541 10.2917 7.46023 10.0901 7.4909 9.41539C7.51944 8.79138 7.6237 8.45271 7.7113 8.22711C7.82731 7.92844 7.96624 7.7151 8.19024 7.4911C8.41424 7.2671 8.62758 7.12843 8.92625 7.01216C9.15185 6.92416 9.49066 6.82016 10.1147 6.79149C10.7051 6.76483 10.9339 6.75683 12.1267 6.75549V6.75709ZM16.1172 7.81979C15.6932 7.81979 15.3492 8.16339 15.3492 8.58753C15.3492 9.01153 15.6932 9.35554 16.1172 9.35554C16.5412 9.35554 16.8852 9.01153 16.8852 8.58753C16.8852 8.16352 16.5412 7.81952 16.1172 7.81952V7.81979ZM9.41411 12.0038C9.41411 10.1888 10.8857 8.71717 12.7007 8.7171C14.5158 8.7171 15.987 10.1887 15.987 12.0038C15.987 13.8189 14.5159 15.2898 12.7008 15.2898C10.8857 15.2898 9.41411 13.8189 9.41411 12.0038Z" fill="#FAFAFC"/>
<path d="M12.7007 9.87048C13.8789 9.87048 14.8341 10.8256 14.8341 12.0038C14.8341 13.182 13.8789 14.1372 12.7007 14.1372C11.5225 14.1372 10.5674 13.182 10.5674 12.0038C10.5674 10.8256 11.5225 9.87048 12.7007 9.87048Z" fill="#FAFAFC"/>
</svg>
